<svg id="visual" viewBox="0 0 900 600" width="900" height="600" xmlns="http://www.w3.org/2000/svg" xmlns:xlink="http://www.w3.org/1999/xlink" version="1.1"><rect x="0" y="0" width="900" height="600" fill="#00296b"></rect><g transform="translate(448.36822881619605 313.8487352274261)"><path d="M184 -199.4C257.9 -157.3 350.5 -117.7 359.9 -63.6C369.3 -9.4 295.5 59.3 234.5 107.5C173.5 155.8 125.2 183.6 67.7 218.8C10.1 254 -56.7 296.6 -109.3 284.4C-162 272.2 -200.5 205.1 -248.5 136.4C-296.6 67.8 -354.1 -2.4 -357.3 -76.7C-360.6 -151 -309.5 -229.5 -240.9 -272.6C-172.3 -315.6 -86.1 -323.3 -15.5 -304.8C55.1 -286.3 110.1 -241.6 184 -199.4" fill="#03182f"></path></g></svg>