<svg id="visual" viewBox="0 0 900 125" width="900" height="125" xmlns="http://www.w3.org/2000/svg" xmlns:xlink="http://www.w3.org/1999/xlink" version="1.1"><rect x="0" y="0" width="900" height="125" fill="#00296b"></rect><path d="M0 102L21.5 97.3C43 92.7 86 83.3 128.8 81C171.7 78.7 214.3 83.3 257.2 84C300 84.7 343 81.3 385.8 82.3C428.7 83.3 471.3 88.7 514.2 92C557 95.3 600 96.7 642.8 98.2C685.7 99.7 728.3 101.3 771.2 96.3C814 91.3 857 79.7 878.5 73.8L900 68L900 0L878.5 0C857 0 814 0 771.2 0C728.3 0 685.7 0 642.8 0C600 0 557 0 514.2 0C471.3 0 428.7 0 385.8 0C343 0 300 0 257.2 0C214.3 0 171.7 0 128.8 0C86 0 43 0 21.5 0L0 0Z" fill="#03284f"></path><path d="M0 79L21.5 79.7C43 80.3 86 81.7 128.8 78.2C171.7 74.7 214.3 66.3 257.2 61.2C300 56 343 54 385.8 57.7C428.7 61.3 471.3 70.7 514.2 75.7C557 80.7 600 81.3 642.8 80.8C685.7 80.3 728.3 78.7 771.2 77C814 75.3 857 73.7 878.5 72.8L900 72L900 0L878.5 0C857 0 814 0 771.2 0C728.3 0 685.7 0 642.8 0C600 0 557 0 514.2 0C471.3 0 428.7 0 385.8 0C343 0 300 0 257.2 0C214.3 0 171.7 0 128.8 0C86 0 43 0 21.5 0L0 0Z" fill="#022447"></path><path d="M0 49L21.5 50.5C43 52 86 55 128.8 54.8C171.7 54.7 214.3 51.3 257.2 50C300 48.7 343 49.3 385.8 50.2C428.7 51 471.3 52 514.2 53.8C557 55.7 600 58.3 642.8 57.5C685.7 56.7 728.3 52.3 771.2 51.8C814 51.3 857 54.7 878.5 56.3L900 58L900 0L878.5 0C857 0 814 0 771.2 0C728.3 0 685.7 0 642.8 0C600 0 557 0 514.2 0C471.3 0 428.7 0 385.8 0C343 0 300 0 257.2 0C214.3 0 171.7 0 128.8 0C86 0 43 0 21.5 0L0 0Z" fill="#02203f"></path><path d="M0 38L21.5 36.7C43 35.3 86 32.7 128.8 30.5C171.7 28.3 214.3 26.7 257.2 26.7C300 26.7 343 28.3 385.8 31C428.7 33.7 471.3 37.3 514.2 40.3C557 43.3 600 45.7 642.8 45.2C685.7 44.7 728.3 41.3 771.2 38.3C814 35.3 857 32.7 878.5 31.3L900 30L900 0L878.5 0C857 0 814 0 771.2 0C728.3 0 685.7 0 642.8 0C600 0 557 0 514.2 0C471.3 0 428.7 0 385.8 0C343 0 300 0 257.2 0C214.3 0 171.7 0 128.8 0C86 0 43 0 21.5 0L0 0Z" fill="#021c37"></path><path d="M0 19L21.5 20.5C43 22 86 25 128.8 24.5C171.7 24 214.3 20 257.2 19C300 18 343 20 385.8 20.7C428.7 21.3 471.3 20.7 514.2 18.7C557 16.7 600 13.3 642.8 13.5C685.7 13.7 728.3 17.3 771.2 17.8C814 18.3 857 15.7 878.5 14.3L900 13L900 0L878.5 0C857 0 814 0 771.2 0C728.3 0 685.7 0 642.8 0C600 0 557 0 514.2 0C471.3 0 428.7 0 385.8 0C343 0 300 0 257.2 0C214.3 0 171.7 0 128.8 0C86 0 43 0 21.5 0L0 0Z" fill="#03182f"></path></svg>