<svg id="visual" viewBox="0 0 960 120" width="960" height="120" xmlns="http://www.w3.org/2000/svg" xmlns:xlink="http://www.w3.org/1999/xlink" version="1.1"><rect x="0" y="0" width="960" height="120" fill="#03182f"></rect><path d="M0 36L22.8 34.5C45.7 33 91.3 30 137 29.8C182.7 29.7 228.3 32.3 274 33.2C319.7 34 365.3 33 411.2 36.3C457 39.7 503 47.3 548.8 48.2C594.7 49 640.3 43 686 37.3C731.7 31.7 777.3 26.3 823 28C868.7 29.7 914.3 38.3 937.2 42.7L960 47L960 121L937.2 121C914.3 121 868.7 121 823 121C777.3 121 731.7 121 686 121C640.3 121 594.7 121 548.8 121C503 121 457 121 411.2 121C365.3 121 319.7 121 274 121C228.3 121 182.7 121 137 121C91.3 121 45.7 121 22.8 121L0 121Z" fill="#fdc500"></path><path d="M0 55L22.8 52.5C45.7 50 91.3 45 137 45.2C182.7 45.3 228.3 50.7 274 55.8C319.7 61 365.3 66 411.2 64.2C457 62.3 503 53.7 548.8 49.5C594.7 45.3 640.3 45.7 686 46C731.7 46.3 777.3 46.7 823 46.5C868.7 46.3 914.3 45.7 937.2 45.3L960 45L960 121L937.2 121C914.3 121 868.7 121 823 121C777.3 121 731.7 121 686 121C640.3 121 594.7 121 548.8 121C503 121 457 121 411.2 121C365.3 121 319.7 121 274 121C228.3 121 182.7 121 137 121C91.3 121 45.7 121 22.8 121L0 121Z" fill="#febd00"></path><path d="M0 83L22.8 82C45.7 81 91.3 79 137 76.3C182.7 73.7 228.3 70.3 274 68.8C319.7 67.3 365.3 67.7 411.2 66.7C457 65.7 503 63.3 548.8 62.7C594.7 62 640.3 63 686 65C731.7 67 777.3 70 823 73C868.7 76 914.3 79 937.2 80.5L960 82L960 121L937.2 121C914.3 121 868.7 121 823 121C777.3 121 731.7 121 686 121C640.3 121 594.7 121 548.8 121C503 121 457 121 411.2 121C365.3 121 319.7 121 274 121C228.3 121 182.7 121 137 121C91.3 121 45.7 121 22.8 121L0 121Z" fill="#feb500"></path><path d="M0 81L22.8 81.8C45.7 82.7 91.3 84.3 137 83C182.7 81.7 228.3 77.3 274 78C319.7 78.7 365.3 84.3 411.2 87.8C457 91.3 503 92.7 548.8 90C594.7 87.3 640.3 80.7 686 78.5C731.7 76.3 777.3 78.7 823 79.2C868.7 79.7 914.3 78.3 937.2 77.7L960 77L960 121L937.2 121C914.3 121 868.7 121 823 121C777.3 121 731.7 121 686 121C640.3 121 594.7 121 548.8 121C503 121 457 121 411.2 121C365.3 121 319.7 121 274 121C228.3 121 182.7 121 137 121C91.3 121 45.7 121 22.8 121L0 121Z" fill="#fead00"></path><path d="M0 102L22.8 102.8C45.7 103.7 91.3 105.3 137 104.8C182.7 104.3 228.3 101.7 274 101.8C319.7 102 365.3 105 411.2 104.7C457 104.3 503 100.7 548.8 98.8C594.7 97 640.3 97 686 96.8C731.7 96.7 777.3 96.3 823 97.3C868.7 98.3 914.3 100.7 937.2 101.8L960 103L960 121L937.2 121C914.3 121 868.7 121 823 121C777.3 121 731.7 121 686 121C640.3 121 594.7 121 548.8 121C503 121 457 121 411.2 121C365.3 121 319.7 121 274 121C228.3 121 182.7 121 137 121C91.3 121 45.7 121 22.8 121L0 121Z" fill="#fda500"></path></svg>