<svg id="visual" viewBox="0 0 900 125" width="900" height="125" xmlns="http://www.w3.org/2000/svg" xmlns:xlink="http://www.w3.org/1999/xlink" version="1.1"><rect x="0" y="0" width="900" height="125" fill="#00296b"></rect><path d="M0 93L21.5 89.7C43 86.3 86 79.7 128.8 76.3C171.7 73 214.3 73 257.2 75.3C300 77.7 343 82.3 385.8 84.8C428.7 87.3 471.3 87.7 514.2 84.7C557 81.7 600 75.3 642.8 74.8C685.7 74.3 728.3 79.7 771.2 79.3C814 79 857 73 878.5 70L900 67L900 0L878.5 0C857 0 814 0 771.2 0C728.3 0 685.7 0 642.8 0C600 0 557 0 514.2 0C471.3 0 428.7 0 385.8 0C343 0 300 0 257.2 0C214.3 0 171.7 0 128.8 0C86 0 43 0 21.5 0L0 0Z" fill="#fdc500"></path><path d="M0 59L21.5 63C43 67 86 75 128.8 74.3C171.7 73.7 214.3 64.3 257.2 64.5C300 64.7 343 74.3 385.8 77.3C428.7 80.3 471.3 76.7 514.2 75.8C557 75 600 77 642.8 76.8C685.7 76.7 728.3 74.3 771.2 73.7C814 73 857 74 878.5 74.5L900 75L900 0L878.5 0C857 0 814 0 771.2 0C728.3 0 685.7 0 642.8 0C600 0 557 0 514.2 0C471.3 0 428.7 0 385.8 0C343 0 300 0 257.2 0C214.3 0 171.7 0 128.8 0C86 0 43 0 21.5 0L0 0Z" fill="#febd00"></path><path d="M0 65L21.5 64.7C43 64.3 86 63.7 128.8 63.3C171.7 63 214.3 63 257.2 60.8C300 58.7 343 54.3 385.8 54C428.7 53.7 471.3 57.3 514.2 58.8C557 60.3 600 59.7 642.8 55.7C685.7 51.7 728.3 44.3 771.2 44.7C814 45 857 53 878.5 57L900 61L900 0L878.5 0C857 0 814 0 771.2 0C728.3 0 685.7 0 642.8 0C600 0 557 0 514.2 0C471.3 0 428.7 0 385.8 0C343 0 300 0 257.2 0C214.3 0 171.7 0 128.8 0C86 0 43 0 21.5 0L0 0Z" fill="#feb500"></path><path d="M0 33L21.5 32C43 31 86 29 128.8 27.8C171.7 26.7 214.3 26.3 257.2 26.3C300 26.3 343 26.7 385.8 28.5C428.7 30.3 471.3 33.7 514.2 37C557 40.3 600 43.7 642.8 44.3C685.7 45 728.3 43 771.2 41.8C814 40.7 857 40.3 878.5 40.2L900 40L900 0L878.5 0C857 0 814 0 771.2 0C728.3 0 685.7 0 642.8 0C600 0 557 0 514.2 0C471.3 0 428.7 0 385.8 0C343 0 300 0 257.2 0C214.3 0 171.7 0 128.8 0C86 0 43 0 21.5 0L0 0Z" fill="#fead00"></path><path d="M0 18L21.5 19C43 20 86 22 128.8 23C171.7 24 214.3 24 257.2 22C300 20 343 16 385.8 16C428.7 16 471.3 20 514.2 22.3C557 24.7 600 25.3 642.8 24.8C685.7 24.3 728.3 22.7 771.2 20C814 17.3 857 13.7 878.5 11.8L900 10L900 0L878.5 0C857 0 814 0 771.2 0C728.3 0 685.7 0 642.8 0C600 0 557 0 514.2 0C471.3 0 428.7 0 385.8 0C343 0 300 0 257.2 0C214.3 0 171.7 0 128.8 0C86 0 43 0 21.5 0L0 0Z" fill="#fda500"></path></svg>